<svg width="92" height="100" viewBox="0 0 92 100" fill="none" xmlns="http://www.w3.org/2000/svg">
<path fill-rule="evenodd" clip-rule="evenodd" d="M23.3516 2.9855e-05C21.5773 0.00419099 19.8559 0.604292 18.4636 1.70403L3.00056 13.921C1.66693 14.9758 0.709028 16.4325 0.269103 18.075C-0.170822 19.7174 -0.0693101 21.4579 0.558565 23.038L7.83956 41.348C8.29449 42.4926 9.01062 43.515 9.93082 44.3336C10.851 45.1522 11.9498 45.7445 13.1396 46.063L70.4576 61.423C72.4821 61.9645 74.6388 61.6796 76.4533 60.6311C78.2678 59.5827 79.5916 57.8564 80.1336 55.832L88.3136 25.303C88.8557 23.2789 88.5715 21.1223 87.5235 19.3077C86.4756 17.4931 84.7497 16.1691 82.7256 15.627L25.4076 0.26703C24.7366 0.0878951 24.045 -0.00188048 23.3506 2.9855e-05H23.3516ZM23.5516 4.21803C23.6946 4.22603 23.8356 4.24303 23.9766 4.26803C43.0166 9.31603 62.0366 14.45 81.0666 19.539C83.0306 19.79 84.6466 21.727 84.3396 23.719C81.6976 33.889 78.9216 44.029 76.2176 54.185C75.9636 56.153 74.0286 57.744 72.0376 57.458C53.4906 52.543 34.9596 47.545 16.4226 42.585C14.8376 42.161 12.9136 41.919 12.0206 40.34C9.54556 34.39 7.23356 28.37 4.83256 22.388C4.01256 20.929 3.96556 18.946 5.14256 17.66C9.58056 14.008 14.1396 10.513 18.6366 6.93203C20.0576 5.94403 21.2816 4.35203 23.1216 4.22003C23.2646 4.21003 23.4086 4.21003 23.5516 4.21803V4.21803ZM54.9946 15.05C51.0476 15.2679 47.2987 16.8489 44.3876 19.523L49.3146 20.843C50.0664 19.6631 50.9297 18.5581 51.8926 17.543C52.8686 16.527 53.9126 15.683 54.9946 15.05V15.05ZM59.3466 15.683C57.4206 15.647 55.2916 16.741 53.2596 18.857C52.5221 19.6344 51.8505 20.4716 51.2516 21.36L57.3856 23.005L59.3466 15.683ZM61.1986 16.1L59.2166 23.496L65.6886 25.229C65.6146 24.1601 65.452 23.0991 65.2026 22.057C64.4576 19.031 63.0396 16.945 61.1986 16.1V16.1ZM13.7826 16.174C12.4438 16.1826 11.1536 16.6765 10.1514 17.5641C9.14917 18.4517 8.50297 19.6727 8.33271 21.0006C8.16245 22.3285 8.47969 23.6731 9.22556 24.7849C9.97143 25.8966 11.0953 26.7 12.3886 27.046C13.1508 27.2511 13.9481 27.2906 14.7269 27.1619C15.5056 27.0332 16.2479 26.7393 16.9036 26.3C17.5594 25.8607 18.1135 25.2861 18.5288 24.6148C18.9441 23.9436 19.2109 23.1912 19.3113 22.4083C19.4117 21.6254 19.3433 20.83 19.1108 20.0757C18.8783 19.3214 18.4871 18.6256 17.9634 18.035C17.4396 17.4445 16.7956 16.9729 16.0745 16.6519C15.3533 16.3309 14.5719 16.1679 13.7826 16.174ZM65.7206 18.104C66.2846 19.144 66.7276 20.324 67.0426 21.603C67.3586 22.885 67.5516 24.278 67.6226 25.747L72.2146 26.979C71.0872 23.3858 68.8042 20.2658 65.7206 18.104V18.104ZM13.6926 20.392C14.3286 20.333 15.0146 20.775 15.1006 21.434C15.3776 22.496 14.1126 23.438 13.1846 22.838C12.0276 22.336 12.4786 20.436 13.6926 20.392ZM42.8886 21.082C41.4776 22.7539 40.4029 24.6825 39.7236 26.762L45.8736 28.412C46.4851 26.3759 47.302 24.4071 48.3116 22.536L42.8886 21.082ZM50.2026 23.042C49.2216 24.772 48.3676 26.75 47.7076 28.902L55.2616 30.925L56.8936 24.835L50.2026 23.042ZM58.7256 25.326L57.0936 31.416L64.9876 33.532C65.4916 31.338 65.7416 29.198 65.7556 27.209L58.7256 25.326ZM67.6456 27.716C67.5836 29.8409 67.3065 31.954 66.8186 34.023L72.6326 35.581C73.0956 33.38 73.1066 31.177 72.7306 29.077L67.6456 27.716ZM39.2336 28.592C38.7825 30.7335 38.7492 32.9419 39.1356 35.096L44.4696 36.525C44.5476 34.514 44.8446 32.396 45.3716 30.239L39.2336 28.592ZM47.2036 30.728C46.6964 32.7926 46.4124 34.9058 46.3566 37.031L53.1386 38.848L54.7706 32.757L47.2036 30.728ZM56.6036 33.248L54.9716 39.339L62.0926 41.247C63.1068 39.3789 63.9174 37.4073 64.5106 35.366L56.6036 33.248ZM66.3356 35.855C65.7473 37.8947 64.9567 39.8705 63.9756 41.753L68.9776 43.091C70.3879 41.4191 71.4619 39.4904 72.1406 37.411L66.3356 35.855ZM39.6516 37.195C40.7794 40.7907 43.0647 43.9125 46.1516 46.074C45.6816 45.1006 45.3169 44.0798 45.0636 43.029C44.7063 41.5389 44.5046 40.0158 44.4616 38.484L39.6516 37.195ZM46.3896 39C46.4512 40.2049 46.6233 41.4016 46.9036 42.575C47.5616 45.245 48.7446 47.181 50.2786 48.181C50.3886 48.219 50.4966 48.26 50.6086 48.296L52.6486 40.677L46.3896 39ZM54.4806 41.169L52.4396 48.787C52.7046 48.843 52.9696 48.894 53.2346 48.937C55.0326 48.801 56.9806 47.719 58.8466 45.775C59.6761 44.8993 60.4236 43.9493 61.0796 42.937L54.4806 41.169ZM87.6346 41.972L86.3806 46.682L86.5556 47.036C86.9516 47.839 86.8886 48.895 86.3556 49.504L86.3026 49.564L86.2616 49.63C80.7926 58.189 75.2606 66.718 69.8206 75.31L69.8006 75.344L69.7806 75.381C69.4526 76.003 68.9216 76.591 68.3406 76.943C67.7606 77.296 67.1706 77.428 66.5486 77.276H66.5426L66.5386 77.274C65.7786 77.098 64.9576 76.314 63.7546 75.652C51.6936 67.944 39.6686 60.173 27.6326 52.415C22.5126 50.891 17.1986 49.309 12.5546 47.858L63.6846 80.639L63.7016 80.649L63.7176 80.66C66.8566 82.51 71.1086 81.375 72.9276 78.226L72.9026 78.269C78.6546 69.313 84.4616 60.384 90.1866 51.399L90.2046 51.373L90.2196 51.344C91.6956 48.686 91.1336 45.239 88.9166 43.171L87.6346 41.972ZM63.0046 43.452C62.1506 44.827 61.2106 46.052 60.2146 47.089C59.5308 47.8061 58.7797 48.4557 57.9716 49.029C61.5204 48.5998 64.8454 47.0686 67.4786 44.651L63.0046 43.452ZM16.4546 55.672L51.3166 97.457C53.5976 100.395 58.1046 100.865 60.9416 98.46C69.1616 91.607 77.4046 84.775 85.6076 77.893L85.6236 77.879L85.6386 77.864C88.3636 75.386 88.4926 70.934 85.9686 68.273L85.9306 68.232L85.8846 68.192C85.6369 67.9882 85.3242 67.8803 85.0036 67.888C84.7257 67.9054 84.4609 68.012 84.2486 68.192C83.9356 68.452 83.8416 68.666 83.7346 68.858C83.6276 69.051 83.5446 69.227 83.4776 69.346C83.4116 69.465 83.3326 69.522 83.4596 69.416L83.4966 69.386C83.2096 69.606 82.9346 69.968 82.8656 70.38C82.7956 70.79 82.9156 71.123 83.0156 71.336C83.2146 71.76 83.3466 71.964 83.3216 71.872L83.3376 71.93L83.3606 71.987C83.7606 72.979 83.4366 74.341 82.5856 74.875L82.5196 74.917L82.4626 74.966C74.5066 81.764 66.3896 88.396 58.3556 95.136C57.3556 95.926 55.6676 95.963 54.8526 95.06C46.3786 84.97 37.9546 74.835 29.5206 64.706L16.4546 55.672Z" fill="#1AA090"/>
</svg>
